<svg width="24" height="24" viewBox="0 0 24 24" fill="none" xmlns="http://www.w3.org/2000/svg">
<path fill-rule="evenodd" clip-rule="evenodd" d="M10.5 2C5.80558 2 2 5.80558 2 10.5C2 15.1944 5.80558 19 10.5 19C12.4869 19 14.3145 18.3183 15.7618 17.176L20.2927 21.7069C20.6832 22.0974 21.3164 22.0974 21.7069 21.7069C22.0974 21.3164 22.0974 20.6832 21.7069 20.2927L17.176 15.7618C18.3183 14.3145 19 12.4869 19 10.5C19 5.80558 15.1944 2 10.5 2ZM15.1616 15.0299C16.2994 13.8592 17 12.2614 17 10.5C17 6.91015 14.0899 4 10.5 4C6.91015 4 4 6.91015 4 10.5C4 14.0899 6.91015 17 10.5 17C12.2614 17 13.8592 16.2994 15.0299 15.1616C15.0495 15.1379 15.0705 15.1149 15.0927 15.0927C15.1149 15.0705 15.1379 15.0495 15.1616 15.0299Z" fill="#A6A7A8"/>
</svg>
