<svg width="137" height="208" viewBox="0 0 137 208" fill="none" xmlns="http://www.w3.org/2000/svg">
<rect x="34.397" y="59.8838" width="78.3894" height="146.617" rx="10.0723" fill="white"/>
<path d="M112.979 163.465V73.9467C112.979 59.9594 88.9742 60.1106 85.5018 59.8838H62.0256C58.5533 60.1106 34.5487 59.9594 34.5487 73.9467V100.107" stroke="#EEF8F6" stroke-width="1.42787" stroke-miterlimit="10" stroke-linecap="round"/>
<path d="M136.415 135.122C136.415 170.145 108.023 198.537 73 198.537C37.977 198.537 47 157.5 11 135.122C-25 112.744 37.977 71.7075 73 71.7075C108.023 71.7075 136.415 100.099 136.415 135.122Z" fill="#DE84FF"/>
<path d="M42.6985 174.959V185.317C42.7133 186.494 42.9593 187.656 43.4225 188.737C43.8858 189.819 44.5571 190.798 45.3983 191.619C46.2395 192.441 47.2339 193.088 48.325 193.525C49.416 193.961 50.5821 194.178 51.7568 194.163H95.3878C96.5625 194.178 97.7287 193.961 98.8197 193.525C99.9107 193.088 100.905 192.441 101.746 191.619C102.587 190.798 103.259 189.819 103.722 188.737C104.185 187.656 104.431 186.494 104.446 185.317V85.1378C104.431 83.9612 104.185 82.799 103.722 81.7177C103.259 80.6363 102.587 79.6569 101.746 78.8355C100.905 78.014 99.9107 77.3666 98.8197 76.9301C97.7287 76.4937 96.5625 76.2768 95.3878 76.2917H51.7568C50.5821 76.2768 49.416 76.4937 48.325 76.9301C47.2339 77.3666 46.2395 78.014 45.3983 78.8355C44.5571 79.6569 43.8858 80.6363 43.4225 81.7177C42.9593 82.799 42.7133 83.9612 42.6985 85.1378V161.652" fill="#E7B5FF"/>
<path d="M42.6985 174.959V185.317C42.7133 186.494 42.9593 187.656 43.4225 188.737C43.8858 189.819 44.5571 190.798 45.3983 191.619C46.2395 192.441 47.2339 193.088 48.325 193.525C49.416 193.961 50.5821 194.178 51.7568 194.163H95.3878C96.5625 194.178 97.7287 193.961 98.8197 193.525C99.9107 193.088 100.905 192.441 101.746 191.619C102.587 190.798 103.259 189.819 103.722 188.737C104.185 187.656 104.431 186.494 104.446 185.317V85.1378C104.431 83.9612 104.185 82.799 103.722 81.7177C103.259 80.6363 102.587 79.6569 101.746 78.8355C100.905 78.014 99.9107 77.3666 98.8197 76.9301C97.7287 76.4937 96.5625 76.2768 95.3878 76.2917H51.7568C50.5821 76.2768 49.416 76.4937 48.325 76.9301C47.2339 77.3666 46.2395 78.014 45.3983 78.8355C44.5571 79.6569 43.8858 80.6363 43.4225 81.7177C42.9593 82.799 42.7133 83.9612 42.6985 85.1378V161.652" stroke="#EEF8F6" stroke-width="1.42787" stroke-miterlimit="10" stroke-linecap="round"/>
<path d="M90.3318 206.335C85.8026 206.638 80.2921 206.789 73.8003 206.638C34.925 207.318 34.623 199.909 34.623 193.785V115.153" stroke="#E9BBFF" stroke-width="1.42787" stroke-miterlimit="10" stroke-linecap="round"/>
<path d="M97.5793 205.58C112.828 203.387 112.979 198.246 112.979 193.709V162.71" stroke="#E9BBFF" stroke-width="1.42787" stroke-miterlimit="10" stroke-linecap="round"/>
<path d="M64.6675 68.9575C70.5363 67.2612 76.7643 67.2612 82.6332 68.9575" stroke="white" stroke-width="1.42787" stroke-miterlimit="10" stroke-linecap="round"/>
<path d="M42.7759 168.003V169.288" stroke="#EEF8F6" stroke-width="1.42787" stroke-miterlimit="10" stroke-linecap="round"/>
<path d="M34.623 105.93V107.215" stroke="#E9BBFF" stroke-width="1.42787" stroke-miterlimit="10" stroke-linecap="round"/>
<path d="M112.979 163.465V73.9467C112.979 59.9594 88.9742 60.1106 85.5018 59.8838H62.0256C58.5533 60.1106 34.5487 59.9594 34.5487 73.9467V100.107" stroke="#040B09" stroke-width="1.5" stroke-miterlimit="10" stroke-linecap="round"/>
<path d="M42.6985 174.959V185.317C42.7133 186.494 42.9593 187.656 43.4225 188.737C43.8858 189.819 44.5571 190.798 45.3983 191.619C46.2395 192.441 47.2339 193.088 48.325 193.525C49.416 193.961 50.5821 194.178 51.7568 194.163H95.3878C96.5625 194.178 97.7287 193.961 98.8197 193.525C99.9107 193.088 100.905 192.441 101.746 191.619C102.587 190.798 103.259 189.819 103.722 188.737C104.185 187.656 104.431 186.494 104.446 185.317V85.1378C104.431 83.9612 104.185 82.799 103.722 81.7177C103.259 80.6363 102.587 79.6569 101.746 78.8355C100.905 78.014 99.9107 77.3666 98.8197 76.9301C97.7287 76.4937 96.5625 76.2768 95.3878 76.2917H51.7568C50.5821 76.2768 49.416 76.4937 48.325 76.9301C47.2339 77.3666 46.2395 78.014 45.3983 78.8355C44.5571 79.6569 43.8858 80.6363 43.4225 81.7177C42.9593 82.799 42.7133 83.9612 42.6985 85.1378V161.652" fill="#E7B5FF"/>
<path d="M42.6985 174.959V185.317C42.7133 186.494 42.9593 187.656 43.4225 188.737C43.8858 189.819 44.5571 190.798 45.3983 191.619C46.2395 192.441 47.2339 193.088 48.325 193.525C49.416 193.961 50.5821 194.178 51.7568 194.163H95.3878C96.5625 194.178 97.7287 193.961 98.8197 193.525C99.9107 193.088 100.905 192.441 101.746 191.619C102.587 190.798 103.259 189.819 103.722 188.737C104.185 187.656 104.431 186.494 104.446 185.317V85.1378C104.431 83.9612 104.185 82.799 103.722 81.7177C103.259 80.6363 102.587 79.6569 101.746 78.8355C100.905 78.014 99.9107 77.3666 98.8197 76.9301C97.7287 76.4937 96.5625 76.2768 95.3878 76.2917H51.7568C50.5821 76.2768 49.416 76.4937 48.325 76.9301C47.2339 77.3666 46.2395 78.014 45.3983 78.8355C44.5571 79.6569 43.8858 80.6363 43.4225 81.7177C42.9593 82.799 42.7133 83.9612 42.6985 85.1378V161.652" stroke="#040B09" stroke-width="1.5" stroke-miterlimit="10" stroke-linecap="round"/>
<path d="M90.3318 206.335C85.8026 206.638 80.2921 206.789 73.8003 206.638C34.925 207.318 34.623 199.909 34.623 193.785V115.153" stroke="#040B09" stroke-width="1.5" stroke-miterlimit="10" stroke-linecap="round"/>
<path d="M97.5793 205.58C112.828 203.387 112.979 198.246 112.979 193.709V162.71" stroke="#040B09" stroke-width="1.5" stroke-miterlimit="10" stroke-linecap="round"/>
<path d="M64.6675 68.9575C70.5363 67.2612 76.7643 67.2612 82.6332 68.9575" stroke="#040B09" stroke-width="1.5" stroke-miterlimit="10" stroke-linecap="round"/>
<path d="M42.7759 168.003V169.288" stroke="#040B09" stroke-width="1.5" stroke-miterlimit="10" stroke-linecap="round"/>
<path d="M65.5266 116.499C65.5266 116.499 62.96 129.05 58.8838 135.854C57.827 137.669 54.883 137.518 53.9017 136.913C51.1087 135.325 50.5048 135.476 43.1072 127.991" stroke="#040B09" stroke-width="2.5" stroke-miterlimit="10" stroke-linecap="round"/>
<path d="M80.8494 119.402C82.9666 124.471 85.4125 129.396 88.1715 134.145C89.2283 135.96 92.1723 135.808 93.1536 135.203C95.9466 133.616 96.5505 133.767 103.948 126.282" stroke="#040B09" stroke-width="2.5" stroke-miterlimit="10" stroke-linecap="round"/>
<path d="M34.623 105.93V107.215" stroke="#040B09" stroke-width="1.5" stroke-miterlimit="10" stroke-linecap="round"/>
<path d="M78.0259 108.093C78.0259 108.093 74.1802 103.061 69.5372 109.061C69.2303 109.422 69.0146 109.851 68.9083 110.313C68.802 110.775 68.8082 111.255 68.9265 111.713C69.2049 112.821 70.0758 113.786 72.7869 112.869C77.6917 111.17 73.3708 112.65 73.3708 112.65C73.3708 112.65 79.6296 111.481 78.0259 108.093Z" fill="#040B09" stroke="#040B09" stroke-width="0.475958" stroke-miterlimit="10"/>
<ellipse cx="59.0743" cy="99.0788" rx="2.90331" ry="4.35497" fill="#040B09"/>
<path d="M59.0768 101.982C61.482 101.982 63.4317 102.956 63.4317 104.159C63.4317 105.362 61.482 104.159 59.0768 104.159C56.6716 104.159 54.7218 105.362 54.7218 104.159C54.7218 102.956 56.6716 101.982 59.0768 101.982Z" fill="#010202"/>
<ellipse cx="86.6572" cy="99.0788" rx="2.90331" ry="4.35497" fill="#040B09"/>
<path d="M86.6566 101.982C89.0618 101.982 91.0116 102.956 91.0116 104.159C91.0116 105.362 89.0618 104.159 86.6566 104.159C84.2514 104.159 82.3016 105.362 82.3016 104.159C82.3016 102.956 84.2514 101.982 86.6566 101.982Z" fill="#010202"/>
<g clip-path="url(#clip0_190:6301)">
<path d="M89.1315 0.698975H62.644C60.8229 0.698975 59.333 2.1889 59.333 4.00992V31.5978C59.333 32.4136 60.3193 32.8221 60.8961 32.2453L65.6867 27.4547C65.8584 27.283 66.0913 27.1865 66.3342 27.1865H89.1315C90.9525 27.1865 92.4424 25.6966 92.4424 23.8756V4.00992C92.4424 2.1889 90.9525 0.698975 89.1315 0.698975Z" fill="#DE84FF"/>
<g clip-path="url(#clip1_190:6301)">
<path fill-rule="evenodd" clip-rule="evenodd" d="M66.9636 5.59784C67.2727 5.28868 67.774 5.28868 68.0831 5.59784L85.4998 23.0145C85.809 23.3237 85.809 23.8249 85.4998 24.1341C85.1907 24.4433 84.6894 24.4433 84.3802 24.1341L66.9636 6.71743C66.6544 6.40826 66.6544 5.90701 66.9636 5.59784Z" fill="#040B09"/>
<path fill-rule="evenodd" clip-rule="evenodd" d="M79.2569 13.7746C79.4487 13.3817 79.9226 13.2186 80.3156 13.4103C81.0233 13.7557 81.6851 14.1882 82.2856 14.6977C82.6189 14.9806 82.6599 15.4802 82.377 15.8136C82.0941 16.147 81.5945 16.1879 81.2611 15.905C80.7613 15.4808 80.2103 15.1208 79.6211 14.8333C79.2282 14.6415 79.0651 14.1675 79.2569 13.7746Z" fill="#040B09"/>
<path fill-rule="evenodd" clip-rule="evenodd" d="M75.5632 13.2756C75.6371 13.7066 75.3476 14.1158 74.9166 14.1896C73.547 14.4242 72.2639 15.0174 71.1978 15.9087C70.8624 16.1892 70.3631 16.1446 70.0827 15.8092C69.8022 15.4738 69.8468 14.9745 70.1822 14.694C71.4628 13.6234 73.004 12.9109 74.6493 12.629C75.0802 12.5552 75.4894 12.8447 75.5632 13.2756Z" fill="#040B09"/>
<path fill-rule="evenodd" clip-rule="evenodd" d="M79.9773 10.7221C78.4637 10.2184 76.8641 10.0249 75.274 10.153C74.8382 10.1881 74.4564 9.86328 74.4213 9.42747C74.3862 8.99166 74.711 8.60989 75.1469 8.57477C76.9489 8.42957 78.7618 8.64893 80.4772 9.21978C82.1927 9.79063 83.7755 10.7013 85.1313 11.8973C85.4591 12.1866 85.4904 12.6868 85.2012 13.0147C84.9119 13.3426 84.4117 13.3739 84.0838 13.0846C82.8875 12.0293 81.4909 11.2258 79.9773 10.7221Z" fill="#040B09"/>
<path fill-rule="evenodd" clip-rule="evenodd" d="M72.3132 9.92053C72.4736 10.3273 72.2739 10.787 71.8671 10.9474C70.5893 11.4514 69.4093 12.1744 68.3802 13.0841C68.0526 13.3737 67.5523 13.3429 67.2627 13.0153C66.9731 12.6877 67.004 12.1874 67.3315 11.8978C68.4987 10.8661 69.8371 10.046 71.2862 9.4745C71.693 9.3141 72.1527 9.51379 72.3132 9.92053Z" fill="#040B09"/>
<path fill-rule="evenodd" clip-rule="evenodd" d="M76.2356 18.0336C75.4141 18.0336 74.6129 18.2893 73.9431 18.7651C73.5867 19.0183 73.0925 18.9347 72.8392 18.5782C72.586 18.2218 72.6697 17.7276 73.0261 17.4743C73.9638 16.8082 75.0855 16.4503 76.2356 16.4503C77.3858 16.4503 78.5075 16.8082 79.4452 17.4743C79.8016 17.7276 79.8853 18.2218 79.6321 18.5782C79.3788 18.9347 78.8846 19.0183 78.5282 18.7651C77.8584 18.2893 77.0572 18.0336 76.2356 18.0336Z" fill="#040B09"/>
<path fill-rule="evenodd" clip-rule="evenodd" d="M75.44 21.1993C75.44 20.7621 75.7945 20.4076 76.2317 20.4076H76.2396C76.6768 20.4076 77.0313 20.7621 77.0313 21.1993C77.0313 21.6365 76.6768 21.991 76.2396 21.991H76.2317C75.7945 21.991 75.44 21.6365 75.44 21.1993Z" fill="#040B09"/>
</g>
</g>
<defs>
<clipPath id="clip0_190:6301">
<rect width="53.9024" height="52.3171" fill="white" transform="translate(58.7317 0.365967)"/>
</clipPath>
<clipPath id="clip1_190:6301">
<rect width="19" height="19" fill="white" transform="translate(66.7317 5.36597)"/>
</clipPath>
</defs>
</svg>
