<svg width="137" height="188" viewBox="0 0 137 188" fill="none" xmlns="http://www.w3.org/2000/svg">
<g clip-path="url(#clip0_190:6511)">
<rect x="34.397" y="39.8838" width="78.3894" height="146.617" rx="10.0723" fill="white"/>
<path d="M112.979 143.465V53.9467C112.979 39.9594 88.9741 40.1106 85.5017 39.8838H62.0255C58.5532 40.1106 34.5486 39.9594 34.5486 53.9467V80.1068" stroke="#EEF8F6" stroke-width="1.42787" stroke-miterlimit="10" stroke-linecap="round"/>
<path d="M1.04635 125.574C-4.32982 90.9661 19.3671 58.5527 53.9749 53.1765C88.5828 47.8003 85.9661 89.7358 124.975 106.322C163.983 122.909 108.052 173.126 73.4438 178.503C38.836 183.879 6.42253 160.182 1.04635 125.574Z" fill="#B7E9FF"/>
<path d="M42.6985 154.959V165.317C42.7133 166.494 42.9593 167.656 43.4225 168.737C43.8858 169.819 44.5571 170.798 45.3983 171.619C46.2395 172.441 47.2339 173.088 48.325 173.525C49.416 173.961 50.5821 174.178 51.7568 174.163H95.3878C96.5625 174.178 97.7287 173.961 98.8197 173.525C99.9107 173.088 100.905 172.441 101.746 171.619C102.587 170.798 103.259 169.819 103.722 168.737C104.185 167.656 104.431 166.494 104.446 165.317V65.1378C104.431 63.9612 104.185 62.799 103.722 61.7177C103.259 60.6363 102.587 59.6569 101.746 58.8355C100.905 58.014 99.9107 57.3666 98.8197 56.9301C97.7287 56.4937 96.5625 56.2768 95.3878 56.2917H51.7568C50.5821 56.2768 49.416 56.4937 48.325 56.9301C47.2339 57.3666 46.2395 58.014 45.3983 58.8355C44.5571 59.6569 43.8858 60.6363 43.4225 61.7177C42.9593 62.799 42.7133 63.9612 42.6985 65.1378V141.652" fill="#21A453"/>
<path d="M42.6985 154.959V165.317C42.7133 166.494 42.9593 167.656 43.4225 168.737C43.8858 169.819 44.5571 170.798 45.3983 171.619C46.2395 172.441 47.2339 173.088 48.325 173.525C49.416 173.961 50.5821 174.178 51.7568 174.163H95.3878C96.5625 174.178 97.7287 173.961 98.8197 173.525C99.9107 173.088 100.905 172.441 101.746 171.619C102.587 170.798 103.259 169.819 103.722 168.737C104.185 167.656 104.431 166.494 104.446 165.317V65.1378C104.431 63.9612 104.185 62.799 103.722 61.7177C103.259 60.6363 102.587 59.6569 101.746 58.8355C100.905 58.014 99.9107 57.3666 98.8197 56.9301C97.7287 56.4937 96.5625 56.2768 95.3878 56.2917H51.7568C50.5821 56.2768 49.416 56.4937 48.325 56.9301C47.2339 57.3666 46.2395 58.014 45.3983 58.8355C44.5571 59.6569 43.8858 60.6363 43.4225 61.7177C42.9593 62.799 42.7133 63.9612 42.6985 65.1378V141.652" stroke="#EEF8F6" stroke-width="1.42787" stroke-miterlimit="10" stroke-linecap="round"/>
<path d="M90.3318 186.335C85.8026 186.638 80.2921 186.789 73.8003 186.638C34.925 187.318 34.623 179.909 34.623 173.785V95.1533" stroke="#E9BBFF" stroke-width="1.42787" stroke-miterlimit="10" stroke-linecap="round"/>
<path d="M97.5793 185.58C112.828 183.387 112.979 178.246 112.979 173.709V142.71" stroke="#E9BBFF" stroke-width="1.42787" stroke-miterlimit="10" stroke-linecap="round"/>
<path d="M64.6675 48.9575C70.5363 47.2612 76.7643 47.2612 82.6332 48.9575" stroke="white" stroke-width="1.42787" stroke-miterlimit="10" stroke-linecap="round"/>
<path d="M42.7759 148.003V149.288" stroke="#EEF8F6" stroke-width="1.42787" stroke-miterlimit="10" stroke-linecap="round"/>
<path d="M34.623 85.9299V87.2152" stroke="#E9BBFF" stroke-width="1.42787" stroke-miterlimit="10" stroke-linecap="round"/>
<path d="M112.979 143.465V53.9467C112.979 39.9594 88.9741 40.1106 85.5017 39.8838H62.0255C58.5532 40.1106 34.5486 39.9594 34.5486 53.9467V80.1068" stroke="#040B09" stroke-width="1.5" stroke-miterlimit="10" stroke-linecap="round"/>
<path d="M42.6985 154.959V165.317C42.7133 166.494 42.9593 167.656 43.4225 168.737C43.8858 169.819 44.5571 170.798 45.3983 171.619C46.2395 172.441 47.2339 173.088 48.325 173.525C49.416 173.961 50.5821 174.178 51.7568 174.163H95.3878C96.5625 174.178 97.7287 173.961 98.8197 173.525C99.9107 173.088 100.905 172.441 101.746 171.619C102.587 170.798 103.259 169.819 103.722 168.737C104.185 167.656 104.431 166.494 104.446 165.317V65.1378C104.431 63.9612 104.185 62.799 103.722 61.7177C103.259 60.6363 102.587 59.6569 101.746 58.8355C100.905 58.014 99.9107 57.3666 98.8197 56.9301C97.7287 56.4937 96.5625 56.2768 95.3878 56.2917H51.7568C50.5821 56.2768 49.416 56.4937 48.325 56.9301C47.2339 57.3666 46.2395 58.014 45.3983 58.8355C44.5571 59.6569 43.8858 60.6363 43.4225 61.7177C42.9593 62.799 42.7133 63.9612 42.6985 65.1378V141.652" fill="#9DDCFF"/>
<path d="M42.6985 154.959V165.317C42.7133 166.494 42.9593 167.656 43.4225 168.737C43.8858 169.819 44.5571 170.798 45.3983 171.619C46.2395 172.441 47.2339 173.088 48.325 173.525C49.416 173.961 50.5821 174.178 51.7568 174.163H95.3878C96.5625 174.178 97.7287 173.961 98.8197 173.525C99.9107 173.088 100.905 172.441 101.746 171.619C102.587 170.798 103.259 169.819 103.722 168.737C104.185 167.656 104.431 166.494 104.446 165.317V65.1378C104.431 63.9612 104.185 62.799 103.722 61.7177C103.259 60.6363 102.587 59.6569 101.746 58.8355C100.905 58.014 99.9107 57.3666 98.8197 56.9301C97.7287 56.4937 96.5625 56.2768 95.3878 56.2917H51.7568C50.5821 56.2768 49.416 56.4937 48.325 56.9301C47.2339 57.3666 46.2395 58.014 45.3983 58.8355C44.5571 59.6569 43.8858 60.6363 43.4225 61.7177C42.9593 62.799 42.7133 63.9612 42.6985 65.1378V141.652" stroke="#040B09" stroke-width="1.5" stroke-miterlimit="10" stroke-linecap="round"/>
<path d="M90.3318 186.335C85.8026 186.638 80.2921 186.789 73.8003 186.638C34.925 187.318 34.623 179.909 34.623 173.785V95.1533" stroke="#040B09" stroke-width="1.5" stroke-miterlimit="10" stroke-linecap="round"/>
<path d="M97.5793 185.58C112.828 183.387 112.979 178.246 112.979 173.709V142.71" stroke="#040B09" stroke-width="1.5" stroke-miterlimit="10" stroke-linecap="round"/>
<path d="M64.6675 48.9575C70.5363 47.2612 76.7643 47.2612 82.6332 48.9575" stroke="#040B09" stroke-width="1.5" stroke-miterlimit="10" stroke-linecap="round"/>
<path d="M42.7759 148.003V149.288" stroke="#040B09" stroke-width="1.5" stroke-miterlimit="10" stroke-linecap="round"/>
<path d="M34.5266 96.4988C34.5266 96.4988 31.96 109.05 27.8838 115.854C26.827 117.669 23.883 117.518 22.9017 116.913C20.1087 115.325 19.5048 115.476 12.1072 107.991" stroke="#040B09" stroke-width="2.5" stroke-miterlimit="10" stroke-linecap="round"/>
<path d="M104.756 107.821C104.756 107.821 113.391 104.889 116.213 100.042C119.034 95.1956 119.051 77.9565 119.051 77.9565" stroke="#040B09" stroke-width="2.5" stroke-linecap="round" stroke-linejoin="round"/>
<path d="M34.623 85.9299V87.2152" stroke="#040B09" stroke-width="1.5" stroke-miterlimit="10" stroke-linecap="round"/>
<path d="M69.4877 89.5533C69.4877 89.5533 70.5812 93.3954 74.6931 90.9481C74.9568 90.8071 75.1827 90.6049 75.3518 90.3586C75.5209 90.1123 75.6282 89.8289 75.6649 89.5325C75.7576 88.8179 75.4695 88.0506 73.6665 87.9618C70.3952 87.8247 73.2733 87.955 73.2733 87.955C73.2733 87.955 69.3299 87.1942 69.4877 89.5533Z" fill="#040B09" stroke="#040B09" stroke-width="0.475958" stroke-miterlimit="10"/>
<ellipse cx="59.0742" cy="79.0788" rx="2.90331" ry="4.35497" fill="#040B09"/>
<path d="M59.0769 81.9816C61.4821 81.9816 63.4319 82.9565 63.4319 84.1591C63.4319 85.3616 61.4821 84.1592 59.0769 84.1592C56.6717 84.1592 54.7219 85.3616 54.7219 84.1591C54.7219 82.9565 56.6717 81.9816 59.0769 81.9816Z" fill="#010202"/>
<ellipse cx="86.6572" cy="79.0788" rx="2.90331" ry="4.35497" fill="#040B09"/>
<path d="M86.6567 81.9816C89.0619 81.9816 91.0117 82.9565 91.0117 84.1591C91.0117 85.3616 89.0619 84.1592 86.6567 84.1592C84.2515 84.1592 82.3018 85.3616 82.3018 84.1591C82.3018 82.9565 84.2515 81.9816 86.6567 81.9816Z" fill="#010202"/>
</g>
<path d="M88.7985 1H62.3109C60.4899 1 59 2.48992 59 4.31094V31.8988C59 32.7146 59.9863 33.1231 60.5631 32.5463L65.3537 27.7557C65.5254 27.584 65.7583 27.4875 66.0012 27.4875H88.7985C90.6195 27.4875 92.1094 25.9976 92.1094 24.1766V4.31094C92.1094 2.48992 90.6195 1 88.7985 1Z" fill="#9DDCFF"/>
<g clip-path="url(#clip1_190:6511)">
<path d="M79.5403 6.6241C78.8801 6.6241 78.2599 6.88062 77.7934 7.34692C76.9364 8.20519 76.8455 9.54105 77.5158 10.5028L75.849 12.1695H73.6782C73.4382 12.1695 73.2434 12.3643 73.2434 12.6043C73.2434 12.8443 73.4382 13.0391 73.6782 13.0391H75.5119C75.5238 13.0545 75.5347 13.0704 75.549 13.0845C75.5536 13.0891 75.5588 13.0919 75.5632 13.0963V14.9243C75.5632 15.1643 75.7579 15.3591 75.9979 15.3591C76.2379 15.3591 76.4327 15.1643 76.4327 14.9243V12.8156L78.1303 11.118C78.5412 11.4054 79.0284 11.5617 79.5406 11.5617C80.2006 11.5617 80.8208 11.305 81.2864 10.8391C82.2492 9.87627 82.2492 8.30953 81.2864 7.34627C80.8201 6.8804 80.2003 6.6241 79.5403 6.6241ZM80.6714 10.2243C80.3697 10.5261 79.9682 10.6921 79.5403 10.6921C79.1125 10.6921 78.711 10.5258 78.4092 10.2239C77.7858 9.60062 77.7853 8.58562 78.4084 7.96171C78.7103 7.65997 79.1123 7.49366 79.5403 7.49366C79.9682 7.49366 80.3697 7.65975 80.6714 7.96127C81.2951 8.58519 81.2951 9.6004 80.6714 10.2243ZM84.4275 4.83758L84.414 4.62584C84.4003 4.40779 84.2269 4.23366 84.0086 4.21932L83.7975 4.2054C83.7597 4.20279 83.5549 4.19019 83.226 4.19019C81.6656 4.19019 77.7612 4.4654 75.214 7.01366C74.901 7.32649 74.6032 7.64975 74.3255 7.97823C73.9797 7.81084 73.5786 7.72106 73.1616 7.72106C72.4103 7.72106 71.7012 7.99953 71.2162 8.48519L68.5651 11.1363C68.2658 11.4348 68.3562 11.7956 68.4051 11.9893C68.4138 12.0245 68.4232 12.0604 68.4301 12.0971C68.4714 12.3174 68.5771 12.5174 68.7358 12.6765C68.8312 12.7715 68.9438 12.8484 69.0738 12.9067L71.7551 14.0824C71.8221 14.8713 72.1119 15.5411 72.6019 16.0319C73.0969 16.5271 73.7749 16.8176 74.5749 16.8804L75.7664 19.5967C75.8205 19.7234 75.8982 19.838 75.9979 19.9387C76.1569 20.0978 76.3573 20.2032 76.5762 20.2434C76.6436 20.2561 76.7123 20.2624 76.7806 20.2624C77.0756 20.2624 77.3534 20.1476 77.5629 19.9387L80.2414 17.2598C81.0364 16.465 81.1938 15.2524 80.6732 14.2921C80.999 14.015 81.316 13.7224 81.6186 13.4193C84.7579 10.2819 84.4425 5.05649 84.4275 4.83758ZM79.8242 13.8667C79.639 14.0163 79.6086 14.2867 79.7558 14.4737C80.2682 15.1258 80.2129 16.0591 79.6269 16.645L76.9488 19.3232C76.8936 19.3784 76.8212 19.4043 76.7349 19.3882C76.689 19.3798 76.6471 19.3576 76.6142 19.3248C76.5929 19.3032 76.5766 19.2795 76.5642 19.2506L75.2627 16.2834C75.1942 16.1269 75.0405 16.0252 74.8695 16.0232C74.1673 16.0152 73.6112 15.8111 73.2171 15.4169C72.8264 15.0256 72.6223 14.4761 72.6103 13.7839C72.6073 13.6141 72.5058 13.4615 72.3501 13.3932L69.4266 12.1113C69.3962 12.0976 69.3705 12.0804 69.3505 12.0606C69.3171 12.0269 69.2934 11.9826 69.2847 11.9354C69.2745 11.8815 69.2614 11.8287 69.2484 11.7769C69.2425 11.7534 69.2353 11.725 69.2301 11.7006L71.8312 9.09932C72.1497 8.7804 72.6471 8.59019 73.1616 8.59019C73.5466 8.59019 73.9027 8.69714 74.1645 8.89149C74.3516 9.03084 74.6162 8.99671 74.7629 8.81453C75.0869 8.41062 75.4455 8.01149 75.8288 7.62823C78.1466 5.31019 81.774 5.05975 83.2262 5.05975C83.3671 5.05975 83.4825 5.06236 83.5682 5.06519C83.6008 5.9791 83.6016 10.208 81.0038 12.8048C80.6297 13.1793 80.2329 13.5367 79.8242 13.8667ZM73.3245 17.5008C73.0838 17.4819 72.876 17.6617 72.8579 17.9011C72.8473 18.0384 72.9019 18.1656 72.9953 18.2528C72.8964 18.3956 72.784 18.53 72.6603 18.6539C71.9582 19.3563 70.8232 19.5024 70.3682 19.5326C70.3484 19.4915 70.3269 19.4415 70.3095 19.39C70.236 19.1708 70.004 19.0471 69.7814 19.1091C69.6712 19.1395 69.5592 19.1782 69.4555 19.218C69.4964 19.1108 69.5351 18.9982 69.5645 18.8906C69.6258 18.6669 69.5005 18.4343 69.2799 18.3626C69.2308 18.3465 69.184 18.3265 69.1449 18.308C69.2103 17.695 69.4571 16.5756 70.019 16.0134C70.134 15.8982 70.2586 15.7932 70.3901 15.6995C70.4784 15.7919 70.606 15.845 70.7442 15.8321C70.9836 15.8102 71.1595 15.5984 71.1375 15.3593C71.116 15.1241 70.9769 14.9211 70.7669 14.8167C70.5573 14.7117 70.3129 14.7213 70.1116 14.8428C69.8551 14.9982 69.6171 15.1854 69.404 15.3987C68.4416 16.3608 68.2814 18.1652 68.2662 18.37C68.2484 18.625 68.374 18.8658 68.5958 19C68.5986 19.0015 68.6012 19.0032 68.6045 19.005C68.5584 19.1169 68.5112 19.2187 68.4775 19.2854C68.3449 19.5487 68.3964 19.8645 68.6025 20.068C68.8088 20.2767 69.1242 20.3282 69.3873 20.1961C69.4473 20.1658 69.5512 20.1174 69.669 20.0687C69.6703 20.0708 69.6712 20.0724 69.6721 20.0734C69.7925 20.2802 70.016 20.4087 70.2558 20.4087C70.2742 20.4087 70.2934 20.4078 70.3116 20.4061V20.4063C70.8853 20.3815 72.3225 20.2211 73.2751 19.2684C73.5001 19.0434 73.6958 18.7917 73.8588 18.5158C73.9758 18.313 73.981 18.0687 73.8742 17.8654C73.7677 17.6582 73.5571 17.5187 73.3245 17.5008ZM68.1851 20.7476C68.0153 20.5778 67.7401 20.5778 67.5703 20.7476L65.2499 23.0674C65.0801 23.2371 65.0801 23.5124 65.2499 23.6824C65.3349 23.7674 65.446 23.8098 65.5573 23.8098C65.6686 23.8098 65.7797 23.7674 65.8647 23.6826L68.1851 21.3628C68.3551 21.1926 68.3551 20.9174 68.1851 20.7476ZM69.8901 21.0791L67.9014 23.0674C67.7316 23.2371 67.7316 23.5124 67.9014 23.6824C67.9864 23.7674 68.0975 23.8098 68.2088 23.8098C68.3201 23.8098 68.4312 23.7674 68.5162 23.6826L70.5049 21.6943C70.6747 21.5245 70.6747 21.2493 70.5049 21.0793C70.3351 20.9093 70.0599 20.9095 69.8901 21.0791ZM78.5069 15.1137L76.5182 17.1024C76.3484 17.2721 76.3484 17.5474 76.5182 17.7171C76.6032 17.8021 76.7142 17.8445 76.8256 17.8445C76.9369 17.8445 77.0479 17.8021 77.1329 17.7171L79.1216 15.7284C79.2914 15.5587 79.2914 15.2834 79.1216 15.1137C78.9519 14.9437 78.6766 14.9437 78.5069 15.1137ZM73.4875 9.47953C73.3177 9.30997 73.0425 9.30975 72.8727 9.47953L70.8845 11.4682C70.7147 11.638 70.7147 11.9132 70.8845 12.0832C70.9695 12.168 71.0805 12.2104 71.1919 12.2104C71.3032 12.2104 71.4142 12.168 71.4992 12.083L73.4875 10.0943C73.6573 9.92453 73.6573 9.64932 73.4875 9.47953ZM66.2205 20.4954C66.3319 20.4954 66.4429 20.453 66.5279 20.368L67.5223 19.3737C67.6921 19.2039 67.6921 18.9287 67.5223 18.7589C67.3525 18.5891 67.0773 18.5891 66.9075 18.7589L65.9132 19.7532C65.7434 19.923 65.7434 20.1982 65.9132 20.368C65.9982 20.453 66.1095 20.4954 66.2205 20.4954Z" fill="black"/>
</g>
<defs>
<clipPath id="clip0_190:6511">
<rect width="137" height="149" fill="white" transform="translate(0 39)"/>
</clipPath>
<clipPath id="clip1_190:6511">
<rect width="19.5652" height="20" fill="white" transform="translate(65 4)"/>
</clipPath>
</defs>
</svg>
