<svg width="137" height="188" viewBox="0 0 137 188" fill="none" xmlns="http://www.w3.org/2000/svg">
<g clip-path="url(#clip0_190:6466)">
<rect x="34.397" y="39.8838" width="78.3894" height="146.617" rx="10.0723" fill="white"/>
<path d="M112.979 143.465V53.9467C112.979 39.9594 88.9741 40.1106 85.5017 39.8838H62.0255C58.5532 40.1106 34.5486 39.9594 34.5486 53.9467V80.1068" stroke="#EEF8F6" stroke-width="1.42787" stroke-miterlimit="10" stroke-linecap="round"/>
<path d="M44.577 51.311C77.4002 39.0944 113.912 55.7994 126.129 88.6226C138.345 121.446 96.7386 127.304 88.3236 168.848C79.9086 210.393 19.4819 165.686 7.26538 132.863C-4.95118 100.039 11.7538 63.5275 44.577 51.311Z" fill="#FFB7B7"/>
<path d="M42.6985 154.959V165.317C42.7133 166.494 42.9593 167.656 43.4225 168.737C43.8858 169.819 44.5571 170.798 45.3983 171.619C46.2395 172.441 47.2339 173.088 48.325 173.525C49.416 173.961 50.5821 174.178 51.7568 174.163H95.3878C96.5625 174.178 97.7287 173.961 98.8197 173.525C99.9107 173.088 100.905 172.441 101.746 171.619C102.587 170.798 103.259 169.819 103.722 168.737C104.185 167.656 104.431 166.494 104.446 165.317V65.1378C104.431 63.9612 104.185 62.799 103.722 61.7177C103.259 60.6363 102.587 59.6569 101.746 58.8355C100.905 58.014 99.9107 57.3666 98.8197 56.9301C97.7287 56.4937 96.5625 56.2768 95.3878 56.2917H51.7568C50.5821 56.2768 49.416 56.4937 48.325 56.9301C47.2339 57.3666 46.2395 58.014 45.3983 58.8355C44.5571 59.6569 43.8858 60.6363 43.4225 61.7177C42.9593 62.799 42.7133 63.9612 42.6985 65.1378V141.652" fill="#FF9D9D"/>
<path d="M42.6985 154.959V165.317C42.7133 166.494 42.9593 167.656 43.4225 168.737C43.8858 169.819 44.5571 170.798 45.3983 171.619C46.2395 172.441 47.2339 173.088 48.325 173.525C49.416 173.961 50.5821 174.178 51.7568 174.163H95.3878C96.5625 174.178 97.7287 173.961 98.8197 173.525C99.9107 173.088 100.905 172.441 101.746 171.619C102.587 170.798 103.259 169.819 103.722 168.737C104.185 167.656 104.431 166.494 104.446 165.317V65.1378C104.431 63.9612 104.185 62.799 103.722 61.7177C103.259 60.6363 102.587 59.6569 101.746 58.8355C100.905 58.014 99.9107 57.3666 98.8197 56.9301C97.7287 56.4937 96.5625 56.2768 95.3878 56.2917H51.7568C50.5821 56.2768 49.416 56.4937 48.325 56.9301C47.2339 57.3666 46.2395 58.014 45.3983 58.8355C44.5571 59.6569 43.8858 60.6363 43.4225 61.7177C42.9593 62.799 42.7133 63.9612 42.6985 65.1378V141.652" stroke="#EEF8F6" stroke-width="1.42787" stroke-miterlimit="10" stroke-linecap="round"/>
<path d="M90.3318 186.335C85.8026 186.638 80.2921 186.789 73.8003 186.638C34.925 187.318 34.623 179.909 34.623 173.785V95.1533" stroke="#E9BBFF" stroke-width="1.42787" stroke-miterlimit="10" stroke-linecap="round"/>
<path d="M97.5793 185.58C112.828 183.387 112.979 178.246 112.979 173.709V142.71" stroke="#E9BBFF" stroke-width="1.42787" stroke-miterlimit="10" stroke-linecap="round"/>
<path d="M64.6675 48.9575C70.5363 47.2612 76.7643 47.2612 82.6332 48.9575" stroke="white" stroke-width="1.42787" stroke-miterlimit="10" stroke-linecap="round"/>
<path d="M42.7759 148.003V149.288" stroke="#EEF8F6" stroke-width="1.42787" stroke-miterlimit="10" stroke-linecap="round"/>
<path d="M34.623 85.9299V87.2152" stroke="#E9BBFF" stroke-width="1.42787" stroke-miterlimit="10" stroke-linecap="round"/>
<path d="M112.979 143.465V53.9467C112.979 39.9594 88.9741 40.1106 85.5017 39.8838H62.0255C58.5532 40.1106 34.5486 39.9594 34.5486 53.9467V80.1068" stroke="#040B09" stroke-width="1.5" stroke-miterlimit="10" stroke-linecap="round"/>
<path d="M42.6985 154.959V165.317C42.7133 166.494 42.9593 167.656 43.4225 168.737C43.8858 169.819 44.5571 170.798 45.3983 171.619C46.2395 172.441 47.2339 173.088 48.325 173.525C49.416 173.961 50.5821 174.178 51.7568 174.163H95.3878C96.5625 174.178 97.7287 173.961 98.8197 173.525C99.9107 173.088 100.905 172.441 101.746 171.619C102.587 170.798 103.259 169.819 103.722 168.737C104.185 167.656 104.431 166.494 104.446 165.317V65.1378C104.431 63.9612 104.185 62.799 103.722 61.7177C103.259 60.6363 102.587 59.6569 101.746 58.8355C100.905 58.014 99.9107 57.3666 98.8197 56.9301C97.7287 56.4937 96.5625 56.2768 95.3878 56.2917H51.7568C50.5821 56.2768 49.416 56.4937 48.325 56.9301C47.2339 57.3666 46.2395 58.014 45.3983 58.8355C44.5571 59.6569 43.8858 60.6363 43.4225 61.7177C42.9593 62.799 42.7133 63.9612 42.6985 65.1378V141.652" fill="#FF9D9D"/>
<path d="M42.6985 154.959V165.317C42.7133 166.494 42.9593 167.656 43.4225 168.737C43.8858 169.819 44.5571 170.798 45.3983 171.619C46.2395 172.441 47.2339 173.088 48.325 173.525C49.416 173.961 50.5821 174.178 51.7568 174.163H95.3878C96.5625 174.178 97.7287 173.961 98.8197 173.525C99.9107 173.088 100.905 172.441 101.746 171.619C102.587 170.798 103.259 169.819 103.722 168.737C104.185 167.656 104.431 166.494 104.446 165.317V65.1378C104.431 63.9612 104.185 62.799 103.722 61.7177C103.259 60.6363 102.587 59.6569 101.746 58.8355C100.905 58.014 99.9107 57.3666 98.8197 56.9301C97.7287 56.4937 96.5625 56.2768 95.3878 56.2917L51.7568 56.2917C50.5821 56.2768 49.416 56.4937 48.325 56.9301C47.2339 57.3666 46.2395 58.014 45.3983 58.8355C44.5571 59.6569 43.8858 60.6363 43.4225 61.7177C42.9593 62.799 42.7133 63.9612 42.6985 65.1378V141.652" stroke="#040B09" stroke-width="1.5" stroke-miterlimit="10" stroke-linecap="round"/>
<path d="M90.3318 186.335C85.8026 186.638 80.2921 186.789 73.8003 186.638C34.925 187.318 34.623 179.909 34.623 173.785V95.1533" stroke="#040B09" stroke-width="1.5" stroke-miterlimit="10" stroke-linecap="round"/>
<path d="M97.5793 185.58C112.828 183.387 112.979 178.246 112.979 173.709V142.71" stroke="#040B09" stroke-width="1.5" stroke-miterlimit="10" stroke-linecap="round"/>
<path d="M64.6675 48.9575C70.5363 47.2612 76.7643 47.2612 82.6332 48.9575" stroke="#040B09" stroke-width="1.5" stroke-miterlimit="10" stroke-linecap="round"/>
<path d="M42.7759 148.003V149.288" stroke="#040B09" stroke-width="1.5" stroke-miterlimit="10" stroke-linecap="round"/>
<path d="M34.5266 96.4988C34.5266 96.4988 31.96 109.05 27.8838 115.854C26.827 117.669 23.883 117.518 22.9017 116.913C20.1087 115.325 19.5048 115.476 12.1072 107.991" stroke="#040B09" stroke-width="2.5" stroke-miterlimit="10" stroke-linecap="round"/>
<path d="M80.8494 99.4016C82.9666 104.471 85.4125 109.396 88.1715 114.145C89.2283 115.96 92.1723 115.808 93.1536 115.203C95.9466 113.616 96.5505 113.767 103.948 106.282" stroke="#040B09" stroke-width="2.5" stroke-miterlimit="10" stroke-linecap="round"/>
<path d="M34.623 85.9299V87.2152" stroke="#040B09" stroke-width="1.5" stroke-miterlimit="10" stroke-linecap="round"/>
<path d="M78.0259 88.0931C78.0259 88.0931 74.1802 83.0613 69.5372 89.0607C69.2303 89.4219 69.0146 89.8513 68.9083 90.3129C68.802 90.7746 68.8082 91.2549 68.9265 91.7135C69.2049 92.8214 70.0758 93.7858 72.7869 92.8689C77.6917 91.1702 73.3708 92.6504 73.3708 92.6504C73.3708 92.6504 79.6296 91.4812 78.0259 88.0931Z" fill="#040B09" stroke="#040B09" stroke-width="0.475958" stroke-miterlimit="10"/>
<ellipse cx="59.0742" cy="79.0788" rx="2.90331" ry="4.35497" fill="#040B09"/>
<path d="M59.0769 81.9816C61.4821 81.9816 63.4319 82.9565 63.4319 84.1591C63.4319 85.3616 61.4821 84.1592 59.0769 84.1592C56.6717 84.1592 54.7219 85.3616 54.7219 84.1591C54.7219 82.9565 56.6717 81.9816 59.0769 81.9816Z" fill="#010202"/>
<ellipse cx="86.6572" cy="79.0788" rx="2.90331" ry="4.35497" fill="#040B09"/>
<path d="M86.6567 81.9816C89.0619 81.9816 91.0117 82.9565 91.0117 84.1591C91.0117 85.3616 89.0619 84.1592 86.6567 84.1592C84.2515 84.1592 82.3018 85.3616 82.3018 84.1591C82.3018 82.9565 84.2515 81.9816 86.6567 81.9816Z" fill="#010202"/>
</g>
<path d="M88.7985 1H62.3109C60.4899 1 59 2.48992 59 4.31094V31.8988C59 32.7146 59.9863 33.1231 60.5631 32.5463L65.3537 27.7557C65.5254 27.584 65.7583 27.4875 66.0012 27.4875H88.7985C90.6195 27.4875 92.1094 25.9976 92.1094 24.1766V4.31094C92.1094 2.48992 90.6195 1 88.7985 1Z" fill="#FF9D9D"/>
<path d="M78.0525 6.2692L84.7572 19.6785C85.3241 20.8122 84.8645 22.1908 83.7308 22.7577C83.4121 22.917 83.0607 23 82.7044 23H69.2951C68.0275 23 67 21.9725 67 20.7049C67 20.3486 67.083 19.9972 67.2423 19.6785L73.947 6.2692C74.5138 5.13547 75.8924 4.67594 77.0261 5.2428C77.4703 5.46488 77.8305 5.82503 78.0525 6.2692ZM76.684 6.95346C76.61 6.8054 76.4899 6.68535 76.3419 6.61133C75.964 6.42237 75.5044 6.57555 75.3155 6.95346L68.6108 20.3628C68.5577 20.469 68.5301 20.5861 68.5301 20.7049C68.5301 21.1274 68.8726 21.4699 69.2951 21.4699H82.7044C82.8232 21.4699 82.9403 21.4423 83.0465 21.3892C83.4244 21.2002 83.5776 20.7407 83.3887 20.3628L76.684 6.95346ZM75.2347 10.7595C75.2347 10.337 75.5772 9.99451 75.9997 9.99451C76.4223 9.99451 76.7648 10.337 76.7648 10.7595V16.8798C76.7648 17.3023 76.4223 17.6448 75.9997 17.6448C75.5772 17.6448 75.2347 17.3023 75.2347 16.8798V10.7595ZM75.9997 19.9399C75.5772 19.9399 75.2347 19.5974 75.2347 19.1749C75.2347 18.7523 75.5772 18.4098 75.9997 18.4098C76.4223 18.4098 76.7648 18.7523 76.7648 19.1749C76.7648 19.5974 76.4223 19.9399 75.9997 19.9399Z" fill="black"/>
<defs>
<clipPath id="clip0_190:6466">
<rect width="137" height="149" fill="white" transform="translate(0 39)"/>
</clipPath>
</defs>
</svg>
